<svg id="_1" data-name="1" xmlns="http://www.w3.org/2000/svg" viewBox="0 0 371.1 215.09"><defs><style>.cls-1{fill:#3f711d;}.cls-1,.cls-2{fill-rule:evenodd;}.cls-2{fill:#e3000f;}</style></defs><title>Dekoplant-logo</title><path class="cls-1" d="M330.41,358.33C326.18,365,317.21,370,312.15,370q-13,0-21.12-12.91t-8.13-33.5q0-20,7.19-32.78t18.4-12.8c7.08,0,10.33,3.41,15.66,11,4.87,6.93,7,25.89,6.53,25.84l-0.42,0-35.84,17.07c2.9,22.06,9.7,28.3,19.71,27.37,3.87-.36,6.83-3.07,10.9-9.61l5.37,8.69h0Zm123-99.87a12.33,12.33,0,0,1,5.9,1.55,11,11,0,0,1,4.48,4.44,12,12,0,0,1,0,12,11.13,11.13,0,0,1-4.43,4.44,12,12,0,0,1-11.93,0,11.16,11.16,0,0,1-4.44-4.44,12,12,0,0,1,0-12,11,11,0,0,1,4.49-4.44,12.31,12.31,0,0,1,5.9-1.55h0Zm0,2a10.22,10.22,0,0,0-4.92,1.3,9.31,9.31,0,0,0-3.74,3.7,10,10,0,0,0,0,10,9.42,9.42,0,0,0,3.71,3.7,10,10,0,0,0,9.95,0,9.34,9.34,0,0,0,3.7-3.7,10,10,0,0,0,0-10,9.24,9.24,0,0,0-3.74-3.7,10.24,10.24,0,0,0-4.91-1.3h0Zm-5.26,16.64h2.08v-5.48h1.22a2.67,2.67,0,0,1,1.67.45,10.37,10.37,0,0,1,2.18,3l1.14,2H459l-1.57-2.52a14.79,14.79,0,0,0-1.91-2.56,3.44,3.44,0,0,0-1.1-.68,4,4,0,0,0,2.68-1.18,3.43,3.43,0,0,0,1-2.46,3.33,3.33,0,0,0-.6-1.89,3.22,3.22,0,0,0-1.62-1.25,10.82,10.82,0,0,0-3.29-.35h-4.43v12.9h0Zm2.08-7.26h2.53a4.08,4.08,0,0,0,2.47-.54,1.85,1.85,0,0,0,.34-2.46,1.9,1.9,0,0,0-.88-0.67,6.47,6.47,0,0,0-2.09-.22h-2.37v3.89h0ZM210,441.09c-2-.59-5.41-4.51-8-7.65,33.2-17.58,180.35,77.89,241.24-54.3-60.66,46.64-192.28-61.38-243.13,52-0.39-.48-0.72-0.88-1-1.18-13.94-16.17-20.77-27.54-27.21-47.53,0-7-6.91-12.55-6-3.81,1.38,14.65,16.17,42.06,27.61,53.5-2.76,2.76-12.82,1.64-16.63,1.64-12.88,0-38.32,23.53-38.32,37.21,9-1.64,14.06-16.49,21.56-22.94,18-15.57,38.51-9.65,55.14,2.7,16.82,12.49,50.12,22.88,70.5,22.88,0-.59,12.53-2.7,4.71-3.82-15,0-53.35-10.68-67.73-22.25A90.08,90.08,0,0,1,210,441.09h0Zm21.47-14.35V397.51h11.94a43.32,43.32,0,0,1,7.95.56,10.56,10.56,0,0,1,4.58,2,6.19,6.19,0,0,1,2.34,5.11c0,3.1-1.58,5.54-4.74,7.3s-7.54,2.65-13.15,2.65h-2.75v11.61h-6.16ZM237.64,412V400.61h3.82c3.67,0,6.31.38,7.9,1.13a3.85,3.85,0,0,1,2.38,3.73,5.29,5.29,0,0,1-3,4.82q-3,1.7-8.56,1.7h-2.52ZM265,426.74V397.51h6.22v26.12H291v3.1H265Zm27.19,0,17.39-29.22h6.16l17.12,29.22h-6.72l-4.77-8.1H302.82l-4.85,8.1h-5.77Zm12.39-11.18,7.49-12.6,7.48,12.6h-15Zm34.62,11.18V397.51h6.1l22.07,22.58V397.51h5.33v29.22h-6.07l-22.1-22.57v22.57H339.2Zm55.24,0V400.61H378.89v-3.1h37.32v3.1H400.66v26.12h-6.22ZM212,309.74a8.54,8.54,0,0,1,7.45,4.86c4.63,12.94-13.33,48.31-33.72,48.31-2.27,0-10.74,5.18-5.57,5.18,0,3.92,5.88,6.51,5.88,11.14,7.53,6.82-8.63,4.08-14.35-7.84,0.31,0,2.59-2,2.9-2-1.57-1.33-4.86-7.21-6.82-7.21-5.65-6,.39-10.59,6.19-5.18,20.08,2.27,38-19.53,38.35-32.62,0.47-13.41-11.92-11.76-11.92-5.25-3.45,3.29-5,4.63-6.19-.63,7.29-10.19,10.19-18.9,7.21-30.27-3.29-12.23,4.78-3.14,6.43,5.88-1,3.92-1.33,10.43-3,13.72,0.63,0.63,1,1.25,1.65.63,1.33,1.25,4.24,1.25,5.49,1.25h0ZM184.31,315c0,1.8-1.49,3.76-1.49,5.73-1.8,1.88,6.59.08,7.68,5.25l-11.21.63c-5.25,0-21.57,12.39-18,26.74-5.57,9-4,4.08-5.25-2,0-7.84-.94-13.72,3.92-18.27,4.63-4.55,17.33-13.1,18-24.62,0.94-20.15-16.39-11.84-20.86-11-8.86,1.73-3.45-4.94,3.53-7.29,11.37-3.76,24.55.47,24.39,20.23,0,0.63-.71,3.92-0.71,4.55h0ZM174,275.87c4.55,0,15.92-1.88,12.7,11.06-2,8.47.94,7.84,4.55,7.84,0-7.84,4.86-14.35-.71-19.53-3.53-3.61-13.65-4.55-14-5.25-12,2.67-25,4.63-36.15,13-6.82,5.25-4.86,11.14,1.33,6.51,9.1-7.14,21.8-13.65,32.23-13.65h0ZM122,297.51c-12.47-11.29-18.35,11.37-20.86,21.72a66.17,66.17,0,0,0,6.74,16.08c4,7.06,9.25,3.29,14.43,3.92-0.24-2.27,9,3.14,11.45.71-1-4-2.27-6.51-4.24-7.84-11.29-7.37-14-14.27-6.59-26.11,4.94-7.14,13.1-7.14,19.6-7.14,6.2,0,18,3.92,23.45,9.1-1.25,5.88-9.73,1.33-12.39.63-8.78-2-17.57-8.47-25.72,1.33-8.78,10.43,2.9,16.94,7.22,20.23,4.86,3.29,6.19,15.61,10.66,16.31,7.84,1.33,9.49,11.68.71,5.18-5.57-3.84-13.72-6.35-20.23-5.88C94,348.33,100.79,369.18,123,373.11c5.88,1,34.58-3.61,34.58,0-1.25,0-2,7.84-1.57,9.18,0.63-.63,2.27,1.33,3.22,1.33-2,8.63-5.17,19.61-7.53,7.76,1.65-6.51-.24-14.27-2.9-13-13.17,6.35-56.54,4-48.7-28.07,1.57-6.27,5.25-5.18,7.84-7.76-3.84-3.92-14.27-13.17-13.64-22.82C96,293.28,107.46,287.79,116.48,285c5.1-1.41,9.65,7.22,9.18,11.84,0,2-3.29.63-3.61,0.63h0Zm114.37,61.12V281.84h7q8.76,0,13.13,2.2c2.9,1.48,5.39,4.2,7.49,8.2q5.17,9.81,5.17,27,0,18.31-5.25,29.18-4.88,10.22-16.63,10.2h-11ZM227.86,369V271.5h20q9,0,14.49,3.24t9.55,10.93q6.4,12.24,6.4,32.26,0,22.59-7.49,36.62-4.07,7.72-9.43,11.08T248,369H227.86Zm107.7,0V280.78h8v43.38c8.13-14.46,15.17-30,21.23-38.1s14.3-9.28,17.75-10.22c-11,12.61-20.67,31.21-29.6,47,11,19.25,29.81,48,47.89,56.7-8.54-1.18-15.29-.17-26.33-11.27s-22.23-28.34-30.94-44V369h-8Zm79.11-7.16q-9,0-14.07-9.81t-5-27.25q0-17.33,5-27.07t14.07-9.74q9,0,14.06,9.74t5,27.07q0,17.45-5,27.25t-14.06,9.81h0Zm0,9.35q12.83,0,20.51-12.61t7.68-33.68q0-21.08-7.68-33.68t-20.51-12.61q-12.85,0-20.52,12.61t-7.68,33.68q0,21.08,7.68,33.68t20.52,12.61h0ZM293.39,320.65l27.2-12.34c-1.84-12.94-4.64-18.9-12.75-18.9S294.33,304.31,293.39,320.65Z" transform="translate(-94.26 -258.47)"/><path class="cls-2" d="M122,297.49c0.31,0,3.61,1.33,3.61-.63,0.47-4.63-4.08-13.25-9.18-11.84-9,2.74-20.47,8.23-22.19,34.66-0.63,9.65,9.8,18.9,13.64,22.82-2.59,2.59-6.27,1.49-7.84,7.76-7.84,32.07,35.52,34.43,48.7,28.07,2.67-1.26,4.55,6.51,2.9,13,2.35,11.84,5.49.86,7.53-7.76-0.94,0-2.59-2-3.22-1.33-0.39-1.33.31-9.18,1.57-9.18,0-3.61-28.7,1-34.58,0-22.19-3.92-29-24.78,3.29-27.37,6.51-.47,14.66,2,20.23,5.88,8.78,6.51,7.14-3.84-.71-5.18-4.47-.71-5.8-13-10.66-16.31-4.31-3.29-16-9.8-7.21-20.23,8.16-9.8,16.94-3.29,25.72-1.33,2.67,0.71,11.13,5.25,12.39-.63-5.49-5.18-17.25-9.1-23.45-9.1-6.51,0-14.66,0-19.6,7.14-7.45,11.84-4.7,18.74,6.59,26.11,2,1.33,3.22,3.84,4.24,7.84-2.43,2.43-11.68-3-11.45-.71-5.18-.63-10.43,3.14-14.43-3.92a66.16,66.16,0,0,1-6.75-16.08C103.69,308.86,109.58,286.19,122,297.49Z" transform="translate(-94.26 -258.47)"/><path class="cls-2" d="M174,275.84c4.55,0,15.92-1.88,12.7,11.06-2,8.47.94,7.84,4.55,7.84,0-7.84,4.86-14.35-.71-19.53-3.53-3.61-13.64-4.55-14-5.25-12,2.67-25,4.63-36.15,13-6.82,5.25-4.86,11.14,1.33,6.51C150.82,282.35,163.53,275.84,174,275.84Z" transform="translate(-94.26 -258.47)"/><path class="cls-2" d="M184.31,315c0-.63.71-3.92,0.71-4.55,0.16-19.76-13-24-24.39-20.23-7,2.35-12.39,9-3.53,7.29,4.47-.86,21.8-9.17,20.86,11-0.63,11.53-13.33,20.08-18,24.62-4.86,4.55-3.92,10.43-3.92,18.27,1.26,6-.31,11,5.25,2-3.61-14.35,12.7-26.74,18-26.74L190.5,326c-1.1-5.18-9.49-3.37-7.68-5.25C182.82,318.74,184.31,316.78,184.31,315Z" transform="translate(-94.26 -258.47)"/><path class="cls-2" d="M212,309.72c-1.25,0-4.16,0-5.49-1.26-0.63.63-1,0-1.65-.63,1.65-3.29,2-9.8,3-13.72-1.65-9-9.72-18.12-6.43-5.88,3,11.37.08,20.08-7.21,30.27,1.18,5.25,2.74,3.92,6.19.63,0-6.51,12.39-8.16,11.92,5.25C212,337.48,194,359.28,174,357c-5.8-5.41-11.84-.78-6.19,5.18,2,0,5.25,5.88,6.82,7.21-0.31,0-2.59,2-2.9,2,5.73,11.92,21.88,14.66,14.35,7.84,0-4.63-5.88-7.22-5.88-11.14-5.18,0,3.29-5.18,5.57-5.18,20.39,0,38.35-35.37,33.72-48.31A8.54,8.54,0,0,0,212,309.72Z" transform="translate(-94.26 -258.47)"/></svg>